<svg width="15" height="15" viewBox="0 0 15 15" fill="none" xmlns="http://www.w3.org/2000/svg">
<path d="M12.8654 0H2.13461C0.923075 0 0 0.923077 0 2.13462V12.8654C0 14.0769 0.923075 15 2.13461 15H12.8654C14.0769 15 15 14.0769 15 12.8654V2.13462C15 0.923077 14.0769 0 12.8654 0ZM7.5 12C9.98077 12 12 10.0385 12 7.67308C12 7.26923 11.9423 6.80769 11.8269 6.46154H13.0962V12.5769C13.0962 12.8654 12.8654 13.1538 12.5192 13.1538H2.48077C2.19231 13.1538 1.90385 12.9231 1.90385 12.5769V6.40385H3.23077C3.11539 6.80769 3.05769 7.21154 3.05769 7.61538C3 10.0385 5.01923 12 7.5 12ZM7.5 10.2692C5.88462 10.2692 4.61538 9 4.61538 7.44231C4.61538 5.88462 5.88462 4.61538 7.5 4.61538C9.11538 4.61538 10.3846 5.88462 10.3846 7.44231C10.3846 9.05769 9.11538 10.2692 7.5 10.2692ZM13.0385 4.09615C13.0385 4.44231 12.75 4.73077 12.4038 4.73077H10.7885C10.4423 4.73077 10.1538 4.44231 10.1538 4.09615V2.53846C10.1538 2.19231 10.4423 1.90385 10.7885 1.90385H12.4038C12.75 1.90385 13.0385 2.19231 13.0385 2.53846V4.09615Z" fill="black"/>
</svg>
