<svg width="16" height="16" viewBox="0 0 16 16" fill="none" xmlns="http://www.w3.org/2000/svg">
<rect width="16" height="16" fill="black"/>
<path d="M14 8.99552V13.4081H11.417V9.26458C11.417 8.24215 11.0404 7.5426 10.1256 7.5426C9.42601 7.5426 8.99552 8.02691 8.83408 8.4574C8.78027 8.61884 8.72646 8.83408 8.72646 9.10314V13.4081H6.1435C6.1435 13.4081 6.19731 6.41256 6.1435 5.71301H8.72646V6.78924C9.04933 6.25112 9.69507 5.49776 11.0404 5.49776C12.7085 5.49776 14 6.6278 14 8.99552ZM3.45291 2C2.59193 2 2 2.59193 2 3.34529C2 4.09866 2.53812 4.69058 3.3991 4.69058C4.3139 4.69058 4.85202 4.09866 4.85202 3.34529C4.90583 2.53812 4.36771 2 3.45291 2ZM2.16143 13.4081H4.74439V5.71301H2.16143V13.4081Z" fill="white"/>
</svg>
