<svg width="147" height="70" viewBox="0 0 147 70" fill="none" xmlns="http://www.w3.org/2000/svg">
<path d="M9.56 40C7.24 40 5.49333 39.4667 4.32 38.4C3.14667 37.3333 2.56 35.5333 2.56 33V10.4H8.48V32.04C8.48 33.0267 8.72 33.7067 9.2 34.08C9.70667 34.4533 10.3467 34.64 11.12 34.64H20.48V40H9.56ZM36.0109 40.24C33.9843 40.24 32.2109 40.0533 30.6909 39.68C29.1709 39.28 27.9043 38.56 26.8909 37.52C25.8776 36.4533 25.1043 34.9333 24.5709 32.96C24.0643 30.9867 23.8109 28.4133 23.8109 25.24C23.8109 22.0667 24.0643 19.4933 24.5709 17.52C25.1043 15.52 25.8776 13.9867 26.8909 12.92C27.9309 11.8533 29.1976 11.12 30.6909 10.72C32.2109 10.32 33.9843 10.12 36.0109 10.12C38.0376 10.12 39.8109 10.32 41.3309 10.72C42.8509 11.12 44.1176 11.8533 45.1309 12.92C46.1443 13.9867 46.9043 15.52 47.4109 17.52C47.9176 19.4933 48.1709 22.0667 48.1709 25.24C48.1709 28.4133 47.9176 30.9867 47.4109 32.96C46.9043 34.9333 46.1443 36.4533 45.1309 37.52C44.1176 38.56 42.8376 39.28 41.2909 39.68C39.7709 40.0533 38.0109 40.24 36.0109 40.24ZM36.0109 34.92C37.1843 34.92 38.1709 34.8 38.9709 34.56C39.7976 34.2933 40.4376 33.8133 40.8909 33.12C41.3709 32.4267 41.7176 31.4533 41.9309 30.2C42.1443 28.92 42.2509 27.2667 42.2509 25.24C42.2509 23.1333 42.1443 21.44 41.9309 20.16C41.7176 18.8533 41.3709 17.8667 40.8909 17.2C40.4109 16.5067 39.7709 16.04 38.9709 15.8C38.1709 15.56 37.1843 15.44 36.0109 15.44C34.8376 15.44 33.8509 15.56 33.0509 15.8C32.2776 16.04 31.6376 16.5067 31.1309 17.2C30.6509 17.8667 30.2909 18.8533 30.0509 20.16C29.8376 21.44 29.7309 23.1333 29.7309 25.24C29.7309 27.2667 29.8243 28.92 30.0109 30.2C30.2243 31.4533 30.5709 32.4267 31.0509 33.12C31.5309 33.8133 32.1709 34.2933 32.9709 34.56C33.7709 34.8 34.7843 34.92 36.0109 34.92ZM53.3397 40V10.4H65.5797C67.1264 10.4 68.5397 10.6667 69.8197 11.2C71.0997 11.7067 72.113 12.6533 72.8597 14.04C73.633 15.4 74.0197 17.3467 74.0197 19.88C74.0197 21.72 73.793 23.1867 73.3397 24.28C72.8864 25.3467 72.2997 26.1733 71.5797 26.76C70.8597 27.3467 70.113 27.8 69.3397 28.12L74.8597 40H68.8197L64.0597 29.04C63.393 29.04 62.6064 29.04 61.6997 29.04C60.793 29.0133 59.9797 28.9867 59.2597 28.96V40H53.3397ZM59.2597 24.28H64.5397C65.6064 24.28 66.4597 23.9867 67.0997 23.4C67.7664 22.7867 68.0997 21.6133 68.0997 19.88C68.0997 18.2 67.7664 17.0933 67.0997 16.56C66.433 16 65.5797 15.72 64.5397 15.72H59.2597V24.28ZM86.4178 40.2C85.7778 40.2 85.0445 40.1333 84.2178 40C83.3911 39.8933 82.5911 39.6267 81.8178 39.2C81.0711 38.7733 80.4445 38.1333 79.9378 37.28C79.4578 36.4 79.2178 35.2 79.2178 33.68V17.16C79.2178 15.4 79.5645 14.0267 80.2578 13.04C80.9511 12.0533 81.8178 11.3733 82.8578 11C83.8978 10.6 84.9378 10.4 85.9778 10.4C88.9645 10.4 91.4578 10.4533 93.4578 10.56C95.4578 10.6667 97.2311 10.7867 98.7778 10.92V15.88H87.7378C86.9111 15.88 86.2711 16.08 85.8178 16.48C85.3645 16.88 85.1378 17.4933 85.1378 18.32V22.6L96.8578 22.92V27.6L85.1378 27.92V32C85.1378 33.04 85.3778 33.7467 85.8578 34.12C86.3645 34.4667 86.9511 34.64 87.6178 34.64H98.7778V39.6C96.9911 39.7867 94.9778 39.9333 92.7378 40.04C90.4978 40.1467 88.3911 40.2 86.4178 40.2ZM103.085 40L106.525 10.4H112.205L119.005 33.08L125.765 10.4H131.405L134.885 40H129.165L126.885 20.6L121.725 40H116.165L111.005 20.84L108.805 40H103.085Z" fill="black"/>
<path d="M1.28 63V48.2H4.24V63H1.28ZM7.20734 63V48.2H13.4473C13.9273 48.2 14.414 48.26 14.9073 48.38C15.414 48.4867 15.874 48.7133 16.2873 49.06C16.714 49.3933 17.054 49.9 17.3073 50.58C17.574 51.26 17.7073 52.16 17.7073 53.28C17.7073 54.4133 17.574 55.3267 17.3073 56.02C17.054 56.7 16.7207 57.22 16.3073 57.58C15.894 57.94 15.4473 58.18 14.9673 58.3C14.4873 58.42 14.0207 58.48 13.5673 58.48C13.2473 58.48 12.8607 58.46 12.4073 58.42C11.9673 58.38 11.5407 58.3333 11.1273 58.28C10.714 58.2267 10.394 58.1867 10.1673 58.16V63H7.20734ZM10.1673 55.82H13.1073C13.6273 55.82 14.0273 55.6267 14.3073 55.24C14.5873 54.8533 14.7273 54.2067 14.7273 53.3C14.7273 52.4067 14.5807 51.78 14.2873 51.42C14.0073 51.0467 13.634 50.86 13.1673 50.86H10.1673V55.82ZM24.4892 63.12C23.7292 63.12 22.9159 63.08 22.0492 63C21.1959 62.9067 20.4626 62.78 19.8492 62.62V60.28C20.4359 60.3333 21.1426 60.38 21.9692 60.42C22.8092 60.4467 23.6026 60.46 24.3492 60.46C25.1092 60.46 25.7092 60.36 26.1492 60.16C26.5892 59.9467 26.8092 59.5467 26.8092 58.96V58.42C26.8092 57.98 26.6759 57.6467 26.4092 57.42C26.1426 57.18 25.7759 57.06 25.3092 57.06H24.0492C22.6359 57.06 21.5492 56.7533 20.7892 56.14C20.0426 55.5133 19.6692 54.4533 19.6692 52.96V52.24C19.6692 50.8 20.0759 49.7467 20.8892 49.08C21.7159 48.4133 22.9026 48.08 24.4492 48.08C25.2626 48.08 26.0692 48.1333 26.8692 48.24C27.6826 48.3467 28.3692 48.46 28.9292 48.58V50.92C28.3159 50.88 27.6292 50.84 26.8692 50.8C26.1226 50.76 25.4292 50.74 24.7892 50.74C24.0959 50.74 23.5359 50.8467 23.1092 51.06C22.6959 51.2733 22.4892 51.7133 22.4892 52.38V52.78C22.4892 53.3 22.6359 53.6733 22.9292 53.9C23.2226 54.1267 23.6559 54.24 24.2292 54.24H25.6892C27.0092 54.24 27.9959 54.6 28.6492 55.32C29.3026 56.04 29.6292 56.9467 29.6292 58.04V58.88C29.6292 60.04 29.4092 60.9267 28.9692 61.54C28.5426 62.1533 27.9426 62.5733 27.1692 62.8C26.4092 63.0133 25.5159 63.12 24.4892 63.12ZM37.7866 63.1C36.9599 63.1 36.1932 63.0333 35.4866 62.9C34.7932 62.7533 34.1799 62.5067 33.6466 62.16C33.1266 61.8 32.7199 61.3067 32.4266 60.68C32.1466 60.04 32.0066 59.2267 32.0066 58.24V48.2H34.9666V58.22C34.9666 59.0333 35.2132 59.6067 35.7066 59.94C36.1999 60.2733 36.8932 60.44 37.7866 60.44C38.6666 60.44 39.3532 60.2733 39.8466 59.94C40.3399 59.6067 40.5866 59.0333 40.5866 58.22V48.2H43.5666V58.24C43.5666 59.2267 43.4199 60.04 43.1266 60.68C42.8332 61.3067 42.4266 61.8 41.9066 62.16C41.3866 62.5067 40.7732 62.7533 40.0666 62.9C39.3599 63.0333 38.5999 63.1 37.7866 63.1ZM45.312 63L47.032 48.2H49.872L53.272 59.54L56.652 48.2H59.472L61.212 63H58.352L57.212 53.3L54.632 63H51.852L49.272 53.42L48.172 63H45.312Z" fill="black"/>
<circle cx="143" cy="36" r="4" fill="black"/>
</svg>
