<svg width="59" height="47" viewBox="0 0 59 47" fill="none" xmlns="http://www.w3.org/2000/svg">
<path d="M3.89258 15C3.31925 15 2.80591 14.9133 2.35258 14.74C1.91258 14.5533 1.56591 14.2467 1.31258 13.82C1.05924 13.3933 0.932578 12.8 0.932578 12.04V0.279999H2.53258V11.82C2.53258 12.3 2.61258 12.6667 2.77258 12.92C2.93258 13.16 3.13924 13.3267 3.39258 13.42C3.65924 13.5 3.93925 13.54 4.23258 13.54H9.51258V15H3.89258ZM15.7971 15.12C14.7571 15.12 13.8971 14.9733 13.2171 14.68C12.5371 14.3733 12.0238 13.8267 11.6771 13.04C11.3438 12.24 11.1771 11.1067 11.1771 9.64C11.1771 8.52 11.2704 7.60667 11.4571 6.9C11.6571 6.18 11.9438 5.62667 12.3171 5.24C12.7038 4.84 13.1838 4.56667 13.7571 4.42C14.3438 4.26 15.0238 4.18 15.7971 4.18C16.8238 4.18 17.6771 4.32667 18.3571 4.62C19.0504 4.91333 19.5704 5.45333 19.9171 6.24C20.2638 7.02667 20.4371 8.16 20.4371 9.64C20.4371 11.1333 20.2638 12.2733 19.9171 13.06C19.5838 13.8467 19.0704 14.3867 18.3771 14.68C17.6971 14.9733 16.8371 15.12 15.7971 15.12ZM15.7971 13.82C16.2904 13.82 16.7238 13.7733 17.0971 13.68C17.4838 13.5867 17.8038 13.4 18.0571 13.12C18.3238 12.84 18.5171 12.42 18.6371 11.86C18.7704 11.3 18.8371 10.56 18.8371 9.64C18.8371 8.72 18.7704 7.98667 18.6371 7.44C18.5171 6.88 18.3238 6.46 18.0571 6.18C17.8038 5.9 17.4838 5.71333 17.0971 5.62C16.7238 5.52667 16.2904 5.48 15.7971 5.48C15.2904 5.48 14.8504 5.52667 14.4771 5.62C14.1038 5.71333 13.7904 5.9 13.5371 6.18C13.2838 6.46 13.0904 6.88 12.9571 7.44C12.8238 7.98667 12.7571 8.72 12.7571 9.64C12.7571 10.56 12.8238 11.3 12.9571 11.86C13.0904 12.42 13.2838 12.84 13.5371 13.12C13.7904 13.4 14.1038 13.5867 14.4771 13.68C14.8504 13.7733 15.2904 13.82 15.7971 13.82ZM23.1001 15V4.32H24.3001L24.6801 6.18C25.1601 5.60667 25.6934 5.13333 26.2801 4.76C26.8801 4.38667 27.5667 4.2 28.3401 4.2C28.7267 4.2 29.0601 4.23333 29.3401 4.3V5.92C29.1667 5.89333 28.9801 5.87333 28.7801 5.86C28.5801 5.83333 28.3801 5.82 28.1801 5.82C27.4467 5.82 26.8201 5.96 26.3001 6.24C25.7801 6.50667 25.2401 6.9 24.6801 7.42V15H23.1001ZM35.4223 15.12C34.3023 15.12 33.4156 14.9533 32.7623 14.62C32.1223 14.2867 31.6623 13.72 31.3823 12.92C31.1023 12.12 30.9623 11.0267 30.9623 9.64C30.9623 8.22667 31.1023 7.12667 31.3823 6.34C31.6756 5.54 32.1489 4.98 32.8023 4.66C33.4556 4.34 34.3356 4.18 35.4423 4.18C36.3756 4.18 37.1423 4.28667 37.7423 4.5C38.3423 4.71333 38.7823 5.08 39.0623 5.6C39.3556 6.10667 39.5023 6.81333 39.5023 7.72C39.5023 8.66667 39.2289 9.33333 38.6823 9.72C38.1356 10.1067 37.3956 10.3 36.4623 10.3H32.5423C32.5423 11.1667 32.6289 11.8667 32.8023 12.4C32.9889 12.92 33.3156 13.3 33.7823 13.54C34.2489 13.7667 34.9223 13.88 35.8023 13.88H39.2423V14.84C38.6289 14.92 38.0289 14.9867 37.4423 15.04C36.8689 15.0933 36.1956 15.12 35.4223 15.12ZM32.5223 9.26H36.3223C36.9223 9.26 37.3623 9.15333 37.6423 8.94C37.9356 8.71333 38.0823 8.31333 38.0823 7.74C38.0823 6.83333 37.8823 6.21333 37.4823 5.88C37.0823 5.54667 36.4023 5.38 35.4423 5.38C34.6823 5.38 34.0889 5.49333 33.6623 5.72C33.2489 5.93333 32.9556 6.32667 32.7823 6.9C32.6089 7.46 32.5223 8.24667 32.5223 9.26ZM42.1626 15V4.32H43.4026L43.7426 5.5C44.2759 5.14 44.8692 4.82667 45.5226 4.56C46.1892 4.28 46.9292 4.14 47.7426 4.14C48.4092 4.14 48.9759 4.29333 49.4426 4.6C49.9092 4.89333 50.2692 5.26667 50.5226 5.72C50.8559 5.48 51.2559 5.24 51.7226 5C52.2026 4.76 52.7092 4.56 53.2426 4.4C53.7892 4.22667 54.3159 4.14 54.8226 4.14C55.5959 4.14 56.2292 4.30667 56.7226 4.64C57.2159 4.96 57.5759 5.4 57.8026 5.96C58.0426 6.50667 58.1626 7.12 58.1626 7.8V15H56.5826V7.92C56.5826 7.24 56.3826 6.68 55.9826 6.24C55.5826 5.8 55.0292 5.58 54.3226 5.58C53.7226 5.58 53.1092 5.69333 52.4826 5.92C51.8559 6.14667 51.2759 6.42 50.7426 6.74C50.8759 7.15333 50.9426 7.55333 50.9426 7.94V15H49.3626V7.92C49.3626 7.24 49.1626 6.68 48.7626 6.24C48.3759 5.8 47.8359 5.58 47.1426 5.58C46.4492 5.58 45.8492 5.67333 45.3426 5.86C44.8359 6.04667 44.3026 6.3 43.7426 6.62V15H42.1626ZM2.80297 29.42C2.58964 29.42 2.48297 29.3133 2.48297 29.1V27.54C2.48297 27.3267 2.58964 27.22 2.80297 27.22H3.92297C4.12297 27.22 4.22297 27.3267 4.22297 27.54V29.1C4.22297 29.3133 4.12297 29.42 3.92297 29.42H2.80297ZM2.56297 42V31.32H4.14297V42H2.56297ZM7.19188 46.74V31.32H8.47188L8.77188 32.42C9.01188 32.2467 9.31854 32.0667 9.69188 31.88C10.0785 31.68 10.4919 31.5133 10.9319 31.38C11.3852 31.2467 11.8319 31.18 12.2719 31.18C13.1919 31.18 13.9319 31.44 14.4919 31.96C15.0519 32.4667 15.4585 33.1333 15.7119 33.96C15.9652 34.7867 16.0919 35.68 16.0919 36.64C16.0919 38.44 15.7852 39.8067 15.1719 40.74C14.5585 41.6733 13.5919 42.14 12.2719 42.14C11.6852 42.14 11.0852 42.0467 10.4719 41.86C9.85854 41.6733 9.29188 41.4267 8.77188 41.12V46.74H7.19188ZM11.8319 40.8C12.3385 40.8 12.7919 40.6733 13.1919 40.42C13.5919 40.1667 13.9119 39.74 14.1519 39.14C14.3919 38.5267 14.5119 37.6933 14.5119 36.64C14.5119 35.64 14.3852 34.84 14.1319 34.24C13.8785 33.6267 13.5452 33.1867 13.1319 32.92C12.7319 32.64 12.2985 32.5 11.8319 32.5C11.2185 32.5 10.6519 32.6 10.1319 32.8C9.62521 32.9867 9.17188 33.1867 8.77188 33.4V39.94C9.23854 40.1933 9.73188 40.4 10.2519 40.56C10.7852 40.72 11.3119 40.8 11.8319 40.8ZM22.4344 42.12C22.1677 42.12 21.841 42.1133 21.4544 42.1C21.0677 42.0867 20.6677 42.0667 20.2544 42.04C19.841 42.0133 19.461 41.9867 19.1144 41.96C18.7677 41.92 18.501 41.88 18.3144 41.84V40.88H22.6944C23.121 40.88 23.4944 40.8467 23.8144 40.78C24.1477 40.7133 24.401 40.5667 24.5744 40.34C24.761 40.1133 24.8544 39.7733 24.8544 39.32V38.84C24.8544 38.3733 24.701 38.0067 24.3944 37.74C24.0877 37.4733 23.5944 37.34 22.9144 37.34H21.4144C20.4677 37.34 19.6944 37.1533 19.0944 36.78C18.5077 36.4067 18.2144 35.7133 18.2144 34.7V34.14C18.2144 33.14 18.5077 32.4067 19.0944 31.94C19.681 31.46 20.641 31.22 21.9744 31.22C22.3477 31.22 22.7744 31.2333 23.2544 31.26C23.7477 31.2867 24.2277 31.3267 24.6944 31.38C25.161 31.42 25.541 31.4667 25.8344 31.52V32.48H21.7144C21.0344 32.48 20.5077 32.5933 20.1344 32.82C19.7744 33.0467 19.5944 33.4867 19.5944 34.14V34.58C19.5944 35.2067 19.781 35.6067 20.1544 35.78C20.541 35.94 21.0477 36.02 21.6744 36.02H23.1944C24.1677 36.02 24.921 36.2467 25.4544 36.7C25.9877 37.1533 26.2544 37.8067 26.2544 38.66V39.4C26.2544 40.12 26.0944 40.68 25.7744 41.08C25.4544 41.4667 25.0077 41.74 24.4344 41.9C23.861 42.0467 23.1944 42.12 22.4344 42.12ZM31.9344 42.12C30.9077 42.12 30.1144 41.8533 29.5544 41.32C29.0077 40.7867 28.7344 39.96 28.7344 38.84V31.32H30.3144V38.44C30.3144 39.3333 30.5144 39.94 30.9144 40.26C31.3144 40.5667 31.8877 40.72 32.6344 40.72C33.2477 40.72 33.8144 40.6333 34.3344 40.46C34.8544 40.2867 35.3944 40.0333 35.9544 39.7V31.32H37.5344V42H36.2944L35.9544 40.82C35.4077 41.18 34.7877 41.4867 34.0944 41.74C33.401 41.9933 32.681 42.12 31.9344 42.12ZM40.5122 42V31.32H41.7522L42.0922 32.5C42.6255 32.14 43.2189 31.8267 43.8722 31.56C44.5389 31.28 45.2789 31.14 46.0922 31.14C46.7589 31.14 47.3255 31.2933 47.7922 31.6C48.2589 31.8933 48.6189 32.2667 48.8722 32.72C49.2055 32.48 49.6055 32.24 50.0722 32C50.5522 31.76 51.0589 31.56 51.5922 31.4C52.1389 31.2267 52.6655 31.14 53.1722 31.14C53.9455 31.14 54.5789 31.3067 55.0722 31.64C55.5655 31.96 55.9255 32.4 56.1522 32.96C56.3922 33.5067 56.5122 34.12 56.5122 34.8V42H54.9322V34.92C54.9322 34.24 54.7322 33.68 54.3322 33.24C53.9322 32.8 53.3789 32.58 52.6722 32.58C52.0722 32.58 51.4589 32.6933 50.8322 32.92C50.2055 33.1467 49.6255 33.42 49.0922 33.74C49.2255 34.1533 49.2922 34.5533 49.2922 34.94V42H47.7122V34.92C47.7122 34.24 47.5122 33.68 47.1122 33.24C46.7255 32.8 46.1855 32.58 45.4922 32.58C44.7989 32.58 44.1989 32.6733 43.6922 32.86C43.1855 33.0467 42.6522 33.3 42.0922 33.62V42H40.5122Z" fill="black"/>
</svg>
