<svg width="16" height="13" viewBox="0 0 16 13" fill="none" xmlns="http://www.w3.org/2000/svg">
<path d="M16 1.55102C15.4286 1.79591 14.7755 1.95918 14.1225 2.04082C14.7755 1.63265 15.3469 0.979595 15.5918 0.244901C14.9388 0.653064 14.2857 0.897962 13.4694 1.06123C12.898 0.408166 12 0 11.102 0C9.30612 0 7.83673 1.46939 7.83673 3.26531C7.83673 3.51021 7.83674 3.7551 7.91837 4C5.22449 3.83673 2.77551 2.53061 1.14285 0.571426C0.897955 1.06122 0.734689 1.63265 0.734689 2.20408C0.734689 3.34694 1.30612 4.32653 2.20408 4.89796C1.63265 4.89796 1.14285 4.7347 0.734689 4.4898C0.734689 6.04082 1.87754 7.42857 3.34693 7.67347C3.10203 7.7551 2.77551 7.75511 2.44898 7.75511C2.20408 7.75511 2.04081 7.7551 1.79592 7.67347C2.20408 8.97959 3.42857 9.95919 4.89796 9.95919C3.7551 10.8571 2.36735 11.3469 0.816327 11.3469C0.571429 11.3469 0.326531 11.3469 0 11.2653C1.46939 12.1633 3.18367 12.7347 5.06122 12.7347C11.102 12.7347 14.3673 7.7551 14.3673 3.42857V3.02041C15.0204 2.77551 15.5918 2.20408 16 1.55102Z" fill="black"/>
</svg>
